HIERARCHY
ROOT reference
{
  OFFSET 0 0 0
  CHANNELS 6 Xposition Yposition Zposition Zrotation Xrotation Yrotation
  JOINT Hips
  {
    OFFSET 93.7515 80.5885 -148.29
    CHANNELS 6 Xposition Yposition Zposition Zrotation Xrotation Yrotation
    JOINT Spine
    {
      OFFSET 0 8.12958 0
      CHANNELS 6 Xposition Yposition Zposition Zrotation Xrotation Yrotation
      JOINT Spine1
      {
        OFFSET 0 26.3907 0
        CHANNELS 6 Xposition Yposition Zposition Zrotation Xrotation Yrotation
        JOINT Neck
        {
          OFFSET 0 26.2823 2.3893
          CHANNELS 6 Xposition Yposition Zposition Zrotation Xrotation Yrotation
          JOINT Head
          {
            OFFSET 0 13.8798 -1.98282
            CHANNELS 6 Xposition Yposition Zposition Zrotation Xrotation Yrotation
            End Site
            {
              OFFSET 0 24.7853 0
            }
          }
        }
        JOINT LeftShoulder
        {
          OFFSET 3.97789 23.5745 -0.27352
          CHANNELS 6 Xposition Yposition Zposition Zrotation Xrotation Yrotation
          JOINT LeftArm
          {
            OFFSET 13.7626 0 0
            CHANNELS 6 Xposition Yposition Zposition Zrotation Xrotation Yrotation
            JOINT LeftForeArm
            {
              OFFSET 26.1014 0 0
              CHANNELS 6 Xposition Yposition Zposition Zrotation Xrotation Yrotation
              JOINT LeftHand
              {
                OFFSET 29.9599 0 0
                CHANNELS 6 Xposition Yposition Zposition Zrotation Xrotation Yrotation
                End Site
                {
                  OFFSET 14.8712 0 0
                }
              }
            }
          }
        }
        JOINT RightShoulder
        {
          OFFSET -3.9517 23.5745 -0.27352
          CHANNELS 6 Xposition Yposition Zposition Zrotation Xrotation Yrotation
          JOINT RightArm
          {
            OFFSET -13.7626 0 0
            CHANNELS 6 Xposition Yposition Zposition Zrotation Xrotation Yrotation
            JOINT RightForeArm
            {
              OFFSET -26.1014 0 0
              CHANNELS 6 Xposition Yposition Zposition Zrotation Xrotation Yrotation
              JOINT RightHand
              {
                OFFSET -29.9599 0 0
                CHANNELS 6 Xposition Yposition Zposition Zrotation Xrotation Yrotation
                End Site
                {
                  OFFSET -14.8712 0 0
                }
              }
            }
          }
        }
      }
    }
    JOINT LeftUpLeg
    {
      OFFSET 9.91412 0 0
      CHANNELS 6 Xposition Yposition Zposition Zrotation Xrotation Yrotation
      JOINT LeftLeg
      {
        OFFSET 0 -41.4279 0
        CHANNELS 6 Xposition Yposition Zposition Zrotation Xrotation Yrotation
        JOINT LeftFoot
        {
          OFFSET 0 -41.0254 0
          CHANNELS 6 Xposition Yposition Zposition Zrotation Xrotation Yrotation
          JOINT LeftToeBase
          {
            OFFSET 0 -6.44418 14.8712
            CHANNELS 6 Xposition Yposition Zposition Zrotation Xrotation Yrotation
            End Site
            {
              OFFSET 0 0 3.96565
            }
          }
        }
      }
    }
    JOINT RightUpLeg
    {
      OFFSET -9.91412 0 0
      CHANNELS 6 Xposition Yposition Zposition Zrotation Xrotation Yrotation
      JOINT RightLeg
      {
        OFFSET 0 -41.4279 0
        CHANNELS 6 Xposition Yposition Zposition Zrotation Xrotation Yrotation
        JOINT RightFoot
        {
          OFFSET 0 -41.0254 0
          CHANNELS 6 Xposition Yposition Zposition Zrotation Xrotation Yrotation
          JOINT RightToeBase
          {
            OFFSET 0 -6.44418 14.8712
            CHANNELS 6 Xposition Yposition Zposition Zrotation Xrotation Yrotation
            End Site
            {
              OFFSET 0 0 3.96565
            }
          }
        }
      }
    }
  }
}
MOTION
Frames:	4
Frame Time:	0.004
0 0 0 0 0 -0 -21.8285 82.5564 -201.393 1.50193 -3.48268 12.7567 0 8.12958 0 -1.58126 0.123705 -2.38408 3.55271e-015 26.3907 -2.84217e-014 -1.48923 -4.12904 -2.44182 0 26.2823 2.3893 0.0449939 18.8626 -6.91753 -3.55271e-015 13.8798 -1.98282 5.86818 -14.4625 -5.64307 3.97789 23.5745 -0.27352 -8.40696 -12.8348 24.5162 13.7626 0 -2.84217e-014 11.1778 -7.97356 -43.5393 26.1014 0 0 -11.9023 8.35666 13.656 29.9599 -2.84217e-014 0 6.53121 9.89026 2.15168 -3.9517 23.5745 -0.27352 -10.0378 0.032937 4.38701 -13.7626 0 0 15.4962 7.71183 -5.9437 -26.1014 2.84217e-014 -2.84217e-014 -3.44517 -2.31547 -0.905184 -29.9599 2.84217e-014 0 -3.58806 -2.3716 0.922868 9.91412 0 0 -0.931707 7.52165 -2.80167 -7.10543e-015 -41.4279 0 0.742999 -0.570928 -1.32597 0 -41.0254 0 1.37466 -8.15484 6.59877 0 -6.44418 14.8712 7.95139e-016 -7.95139e-016 3.18055e-015 -9.91412 0 -2.84217e-014 1.53671 7.97502 0.444625 -3.55271e-015 -41.4279 0 0.222241 1.2407 2.11416 -3.55271e-015 -41.0254 0 -3.08466 -10.4342 -17.0175 0 -6.44418 14.8712 2.48481e-016 7.95139e-016 -1.98785e-016 
0 0 0 0 0 -0 -21.8343 82.5562 -201.407 1.50007 -3.47626 12.7527 -3.55271e-015 8.12958 0 -1.58067 0.143429 -2.38413 7.10543e-015 26.3907 0 -1.49465 -4.14234 -2.4419 0 26.2823 2.3893 0.0666265 18.8599 -6.93838 0 13.8798 -1.98282 5.87933 -14.4287 -5.66299 3.97789 23.5745 -0.27352 -8.3999 -12.8456 24.5063 13.7626 2.84217e-014 0 11.4384 -7.58565 -43.4668 26.1014 -2.84217e-014 2.84217e-014 -11.842 8.16613 13.5521 29.9599 2.84217e-014 0 6.51636 9.68293 2.16322 -3.9517 23.5745 -0.27352 -10.0208 0.0413244 4.37687 -13.7626 2.84217e-014 0 15.5393 7.77686 -5.94382 -26.1014 0 2.84217e-014 -3.51596 -2.35614 -0.879131 -29.9599 0 0 -3.60332 -2.41229 0.927962 9.91412 0 -2.84217e-014 -0.931267 7.47038 -2.78326 3.55271e-015 -41.4279 -2.84217e-014 0.749531 -0.503223 -1.34219 7.10543e-015 -41.0254 0 1.34472 -8.18714 6.61483 0 -6.44418 14.8712 2.20695e-032 -7.95139e-016 1.59028e-015 -9.91412 -2.84217e-014 -2.84217e-014 1.5299 7.90926 0.497661 -3.55271e-015 -41.4279 -2.84217e-014 0.234308 1.33322 2.11409 0 -41.0254 2.84217e-014 -3.10071 -10.4633 -17.0513 0 -6.44418 14.8712 -8.69683e-017 7.95139e-016 -3.97569e-016 
0 0 0 0 0 -0 -21.8427 82.559 -201.425 1.49747 -3.46114 12.73 0 8.12958 2.84217e-014 -1.57999 0.159121 -2.38425 0 26.3907 0 -1.48471 -4.14786 -2.44172 0 26.2823 2.3893 0.046319 18.8524 -6.96331 -3.55271e-015 13.8798 -1.98282 5.95981 -14.3814 -5.67057 3.97789 23.5745 -0.27352 -8.40444 -12.8724 24.4941 13.7626 -2.84217e-014 -2.84217e-014 11.4646 -7.51494 -43.4182 26.1014 2.84217e-014 0 -11.8042 8.10284 13.5209 29.9599 0 0 6.51269 9.61348 2.18726 -3.9517 23.5745 -0.27352 -10.0134 0.0526368 4.35398 -13.7626 0 2.84217e-014 15.5821 7.79957 -5.92541 -26.1014 -2.84217e-014 0 -3.58654 -2.39574 -0.838114 -29.9599 -2.84217e-014 0 -3.63812 -2.45166 0.935124 9.91412 0 2.84217e-014 -0.93036 7.40319 -2.74402 7.10543e-015 -41.4279 0 0.741369 -0.418203 -1.36132 -3.55271e-015 -41.0254 0 1.34068 -8.21367 6.63643 0 -6.44418 14.8712 -1.98785e-016 2.38542e-015 3.18055e-015 -9.91412 0 0 1.51496 7.80232 0.607847 -3.55271e-015 -41.4279 0 0.252423 1.4874 2.1409 0 -41.0254 0 -3.11187 -10.5203 -17.1361 0 -6.44418 14.8712 1.86361e-016 -7.95139e-016 -0 
0 0 0 0 0 -0 -21.8526 82.5631 -201.443 1.48788 -3.4455 12.7105 -3.55271e-015 8.12958 0 -1.57764 0.177123 -2.38437 7.10543e-015 26.3907 0 -1.4745 -4.15886 -2.44156 -3.55271e-015 26.2823 2.3893 0.0510549 18.8336 -6.99034 0 13.8798 -1.98282 6.00719 -14.3165 -5.68939 3.97789 23.5745 -0.27352 -8.38506 -12.8792 24.4861 13.7626 0 2.84217e-014 11.5261 -7.35572 -43.3567 26.1014 2.84217e-014 -2.84217e-014 -11.7625 8.00392 13.476 29.9599 -2.84217e-014 0 6.53397 9.50461 2.1659 -3.9517 23.5745 -0.27352 -9.99867 0.0612011 4.33339 -13.7626 0 -2.84217e-014 15.6144 7.80043 -5.91195 -26.1014 2.84217e-014 0 -3.64362 -2.42209 -0.777049 -29.9599 -2.84217e-014 0 -3.70046 -2.47614 0.908807 9.91412 -1.42109e-014 0 -0.925702 7.33114 -2.68859 -3.55271e-015 -41.4279 0 0.740812 -0.334226 -1.37405 -7.10543e-015 -41.0254 0 1.34389 -8.22433 6.62114 7.10543e-015 -6.44418 14.8712 -3.97569e-016 0 3.18055e-015 -9.91412 0 0 1.51683 7.6917 0.693129 -3.55271e-015 -41.4279 0 0.253495 1.64268 2.18033 -3.55271e-015 -41.0254 2.84217e-014 -3.09746 -10.5684 -17.1979 0 -6.44418 14.8712 -2.23633e-016 0 -1.98785e-016 
